# xmcd
# 
# Track frame offsets:
#     150
#     13381
#     32320
#     47577
#     64786
#     77382
#     90636
#     104153
#     116745
#     136184
#     146021
# 
# Disc length: 2144
# 
# Revision: 1
# Processed by: cddbd v1.5.2PL0 Copyright (c) Steve Scherf et al.
# Submitted via: fre:ac v1.0.17
# 
DISCID=8f085e0b
DTITLE=Gerard Darmon - Dancing
DYEAR=2006
DGENRE=Dance
TTITLE0=Mambo Italiano
TTITLE1=Svalutation
TTITLE2=Avec Ses Yeux La
TTITLE3=My Way Of Life
TTITLE4=Buona Sera
TTITLE5=La Belle Vie
TTITLE6=Acercatemas
TTITLE7=Mes Mains
TTITLE8=Via Con Me
TTITLE9=Quand Je Monte Chez Toi (Pense Pour Henri)
TTITLE10=That's Life
EXTD=
EXTT0=
EXTT1=
EXTT2=
EXTT3=
EXTT4=
EXTT5=
EXTT6=
EXTT7=
EXTT8=
EXTT9=
EXTT10=
PLAYORDER=
